<svg xmlns="http://www.w3.org/2000/svg" width="32" height="32" viewBox="0 0 32 32"><g transform="translate(-107 -759.527)"><path fill="#2b4255" style="line-height:normal;text-indent:0;text-align:start;text-decoration-line:none;text-decoration-style:solid;text-decoration-color:#000;text-transform:none;block-progression:tb;isolation:auto;mix-blend-mode:normal" d="m 109.5,761.52734 a 0.50005,0.50005 0 0 0 -0.5,0.5 l 0,27 a 0.50005,0.50005 0 0 0 0.5,0.5 l 27,0 a 0.50005,0.50005 0 0 0 0.5,-0.5 l 0,-14.61523 0,-4.58008 0,-7.80469 a 0.50005,0.50005 0 0 0 -0.5,-0.5 l -27,0 z m 0.5,1 26,0 0,7.30469 0,4.58008 0,14.11523 -26,0 0,-26 z" color="#000" font-family="sans-serif" font-weight="400" overflow="visible"/><path fill="#2b4255" fill-rule="evenodd" style="line-height:normal;text-indent:0;text-align:start;text-decoration-line:none;text-decoration-style:solid;text-decoration-color:#000;text-transform:none;block-progression:tb;isolation:auto;mix-blend-mode:normal" d="m 109.5,765.52734 0,1 27,0 0,-1 -27,0 z" color="#000" font-family="sans-serif" font-weight="400" overflow="visible"/><path fill="#f05542" style="isolation:auto;mix-blend-mode:normal" d="M112.00001 764.02742a.49999636.49999636 0 0 1-.49999.5.49999636.49999636 0 0 1-.5-.5.49999636.49999636 0 0 1 .5-.49999.49999636.49999636 0 0 1 .49999.49999zM114.00001 764.0273a.49999762.49999762 0 0 1-.49999.5.49999762.49999762 0 0 1-.5-.5.49999762.49999762 0 0 1 .5-.5.49999762.49999762 0 0 1 .49999.5zM116.00011 764.0273a.50002968.50002968 0 0 1-.50003.50003.50002968.50002968 0 0 1-.50003-.50003.50002968.50002968 0 0 1 .50003-.50003.50002968.50002968 0 0 1 .50003.50003z" color="#000" overflow="visible"/><path fill="#f05542" style="line-height:normal;text-indent:0;text-align:start;text-decoration-line:none;text-decoration-style:solid;text-decoration-color:#000;text-transform:none;block-progression:tb;isolation:auto;mix-blend-mode:normal" d="m 112.5,768.52687 a 0.50005,0.50005 0 0 0 -0.5,0.5 l 0,7 a 0.50005,0.50005 0 0 0 0.5,0.5 l 7,0 a 0.50005,0.50005 0 0 0 0.5,-0.5 l 0,-7 a 0.50005,0.50005 0 0 0 -0.5,-0.5 l -7,0 z m 0.5,1 6,0 0,6 -6,0 0,-6 z" color="#000" font-family="sans-serif" font-weight="400" overflow="visible"/><path fill="#f05542" fill-rule="evenodd" style="line-height:normal;text-indent:0;text-align:start;text-decoration-line:none;text-decoration-style:solid;text-decoration-color:#000;text-transform:none;block-progression:tb;isolation:auto;mix-blend-mode:normal" d="M112 777.52687l0 1 7 0 0-1-7 0zM112 779.52687l0 1 4 0 0-1-4 0zM121 768.52687l0 1 5 0 0-1-5 0zM121 770.52687l0 1 13 0 0-1-13 0zM121 772.52687l0 1 11 0 0-1-11 0zM121 774.52687l0 1 11 0 0-1-11 0zM121 776.52687l0 1 11 0 0-1-11 0zM121 778.52687l0 1 4 0 0-1-4 0z" color="#000" font-family="sans-serif" font-weight="400" overflow="visible"/><path fill="#f05542" style="line-height:normal;text-indent:0;text-align:start;text-decoration-line:none;text-decoration-style:solid;text-decoration-color:#000;text-transform:none;block-progression:tb;isolation:auto;mix-blend-mode:normal" d="M118.5 782.52687c-.82236 0-1.5.67765-1.5 1.5l0 1c0 .82236.67764 1.5 1.5 1.5l3 0c.82236 0 1.5-.67763 1.5-1.5l0-1c0-.82236-.67764-1.5-1.5-1.5l-3 0zm0 1l3 0c.28566 0 .5.21435.5.5l0 1c0 .28566-.21434.5-.5.5l-3 0c-.28566 0-.5-.21433-.5-.5l0-1c0-.28566.21434-.5.5-.5zM125.5 782.52687c-.82236 0-1.5.67765-1.5 1.5l0 1c0 .82236.67764 1.5 1.5 1.5l3 0c.82236 0 1.5-.67763 1.5-1.5l0-1c0-.82236-.67764-1.5-1.5-1.5l-3 0zm0 1l3 0c.28566 0 .5.21435.5.5l0 1c0 .28566-.21434.5-.5.5l-3 0c-.28566 0-.5-.21433-.5-.5l0-1c0-.28566.21434-.5.5-.5z" color="#000" font-family="sans-serif" font-weight="400" overflow="visible"/></g></svg>